<mxfile host="app.diagrams.net" agent="Mozilla/5.0 (Windows NT 10.0; Win64; x64) AppleWebKit/537.36 (KHTML, like Gecko) Chrome/128.0.0.0 YaBrowser/24.10.0.0 Safari/537.36" version="24.8.6">
  <diagram name="Страница — 1" id="4GShtJY68JFG46u0hEXo">
    <mxGraphModel dx="956" dy="546" grid="0" gridSize="10" guides="1" tooltips="1" connect="1" arrows="1" fold="1" page="1" pageScale="1" pageWidth="827" pageHeight="1169" math="0" shadow="0">
      <root>
        <mxCell id="0" />
        <mxCell id="1" parent="0" />
        <mxCell id="OQfiyFCq8gQEs_OBrTxf-1" value="Веб сервер&lt;div&gt;(Node.js, Apache и т.д.)&lt;/div&gt;" style="verticalAlign=top;align=center;spacingTop=8;spacingLeft=2;spacingRight=12;shape=cube;size=10;direction=south;fontStyle=4;html=1;whiteSpace=wrap;" vertex="1" parent="1">
          <mxGeometry x="150" y="250" width="190" height="120" as="geometry" />
        </mxCell>
        <mxCell id="OQfiyFCq8gQEs_OBrTxf-2" value="Серверы базы данных&lt;div&gt;(PostgreSQL/MySQL)&lt;/div&gt;" style="verticalAlign=top;align=center;spacingTop=8;spacingLeft=2;spacingRight=12;shape=cube;size=10;direction=south;fontStyle=4;html=1;whiteSpace=wrap;" vertex="1" parent="1">
          <mxGeometry x="470" y="250" width="180" height="120" as="geometry" />
        </mxCell>
        <mxCell id="OQfiyFCq8gQEs_OBrTxf-3" value="Клиентское устройство&lt;div&gt;(Браузер)&lt;/div&gt;" style="verticalAlign=top;align=center;spacingTop=8;spacingLeft=2;spacingRight=12;shape=cube;size=10;direction=south;fontStyle=4;html=1;whiteSpace=wrap;" vertex="1" parent="1">
          <mxGeometry x="155" y="465" width="180" height="120" as="geometry" />
        </mxCell>
        <mxCell id="OQfiyFCq8gQEs_OBrTxf-5" value="" style="line;strokeWidth=1;fillColor=none;align=left;verticalAlign=middle;spacingTop=-1;spacingLeft=3;spacingRight=3;rotatable=0;labelPosition=right;points=[];portConstraint=eastwest;strokeColor=inherit;" vertex="1" parent="1">
          <mxGeometry x="150" y="300" width="180" height="8" as="geometry" />
        </mxCell>
        <mxCell id="OQfiyFCq8gQEs_OBrTxf-6" value="" style="line;strokeWidth=1;fillColor=none;align=left;verticalAlign=middle;spacingTop=-1;spacingLeft=3;spacingRight=3;rotatable=0;labelPosition=right;points=[];portConstraint=eastwest;strokeColor=inherit;" vertex="1" parent="1">
          <mxGeometry x="155" y="510" width="170" height="8" as="geometry" />
        </mxCell>
        <mxCell id="OQfiyFCq8gQEs_OBrTxf-7" value="" style="line;strokeWidth=1;fillColor=none;align=left;verticalAlign=middle;spacingTop=-1;spacingLeft=3;spacingRight=3;rotatable=0;labelPosition=right;points=[];portConstraint=eastwest;strokeColor=inherit;" vertex="1" parent="1">
          <mxGeometry x="470" y="300" width="170" height="8" as="geometry" />
        </mxCell>
        <mxCell id="OQfiyFCq8gQEs_OBrTxf-8" value="&lt;div style=&quot;text-align: left;&quot;&gt;&lt;span style=&quot;background-color: initial;&quot;&gt;- Приложение сайта&lt;/span&gt;&lt;/div&gt;&lt;div style=&quot;text-align: left;&quot;&gt;- API для обработки запросов&lt;/div&gt;&lt;div style=&quot;text-align: left;&quot;&gt;- Система авторизации&lt;/div&gt;" style="text;html=1;align=center;verticalAlign=middle;resizable=0;points=[];autosize=1;strokeColor=none;fillColor=none;" vertex="1" parent="1">
          <mxGeometry x="145" y="308" width="190" height="60" as="geometry" />
        </mxCell>
        <mxCell id="OQfiyFCq8gQEs_OBrTxf-9" value="- Веб-интерфейс&lt;div&gt;- Отправка запросов&lt;/div&gt;&lt;div&gt;- Просмотр статусов&lt;/div&gt;" style="text;html=1;align=left;verticalAlign=middle;resizable=0;points=[];autosize=1;strokeColor=none;fillColor=none;" vertex="1" parent="1">
          <mxGeometry x="161" y="519" width="140" height="60" as="geometry" />
        </mxCell>
        <mxCell id="OQfiyFCq8gQEs_OBrTxf-10" value="- Таблицы заявок&lt;div&gt;- Таблицы клиентов&lt;/div&gt;&lt;div&gt;- Таблицы материалов&lt;/div&gt;" style="text;html=1;align=left;verticalAlign=middle;resizable=0;points=[];autosize=1;strokeColor=none;fillColor=none;" vertex="1" parent="1">
          <mxGeometry x="480" y="308" width="150" height="60" as="geometry" />
        </mxCell>
        <mxCell id="OQfiyFCq8gQEs_OBrTxf-12" value="" style="endArrow=classic;startArrow=classic;html=1;rounded=0;exitX=0;exitY=0;exitDx=55;exitDy=0;exitPerimeter=0;entryX=0.468;entryY=1.003;entryDx=0;entryDy=0;entryPerimeter=0;" edge="1" parent="1" source="OQfiyFCq8gQEs_OBrTxf-1" target="OQfiyFCq8gQEs_OBrTxf-2">
          <mxGeometry width="50" height="50" relative="1" as="geometry">
            <mxPoint x="390" y="420" as="sourcePoint" />
            <mxPoint x="440" y="370" as="targetPoint" />
            <Array as="points" />
          </mxGeometry>
        </mxCell>
        <mxCell id="OQfiyFCq8gQEs_OBrTxf-14" style="edgeStyle=orthogonalEdgeStyle;rounded=0;orthogonalLoop=1;jettySize=auto;html=1;exitX=0;exitY=0;exitDx=0;exitDy=85;exitPerimeter=0;entryX=1.025;entryY=0.477;entryDx=0;entryDy=0;entryPerimeter=0;" edge="1" parent="1" source="OQfiyFCq8gQEs_OBrTxf-3" target="OQfiyFCq8gQEs_OBrTxf-1">
          <mxGeometry relative="1" as="geometry" />
        </mxCell>
      </root>
    </mxGraphModel>
  </diagram>
</mxfile>
